<?xml version="1.0" encoding="utf-8"?>
<!-- Generator: Adobe Illustrator 23.0.1, SVG Export Plug-In . SVG Version: 6.00 Build 0)  -->
<svg version="1.1" id="Layer_1" xmlns="http://www.w3.org/2000/svg" xmlns:xlink="http://www.w3.org/1999/xlink" x="0px" y="0px"
	 viewBox="0 0 32 32" style="enable-background:new 0 0 32 32;" xml:space="preserve">
<style type="text/css">
	.st0{fill-rule:evenodd;clip-rule:evenodd;fill:#8C68A1;}
	.st1{fill:#FFFFFF;}
</style>
<circle class="st0" cx="16" cy="16" r="15"/>
<path class="st1" d="M12.29,13.52l-0.33,2.13c-1.4-0.05-2.2,0.37-2.41,1.68l-0.47,2.94H6.8l0.7-4.48c0.15-0.96,0.22-1.58,0.23-2.18
	h2.23c0,0.33-0.03,0.88-0.09,1.41C10.41,13.98,11.14,13.51,12.29,13.52z M12.08,20.28h2.28l1.04-6.66h-2.27L12.08,20.28z
	 M14.54,10.63c-0.71,0-1.24,0.51-1.24,1.17c0,0.68,0.51,1.16,1.22,1.16c0.7,0,1.24-0.5,1.24-1.17
	C15.76,11.13,15.24,10.63,14.54,10.63z M24.59,12.29c0.28,0,0.45,0.04,0.61,0.1l0.27-1.67c-0.29-0.1-0.59-0.18-1.18-0.18
	c-1.4,0-2.55,0.65-2.8,2.23l-0.14,0.84h-1.92l0.08-0.48c0.08-0.47,0.32-0.7,0.83-0.7c0.25,0,0.41,0.03,0.59,0.09l0.25-1.66
	c-0.28-0.11-0.6-0.18-1.16-0.18c-1.38,0-2.51,0.65-2.75,2.22l-0.11,0.71H16.3l-0.24,1.55h0.84l-0.8,5.11h2.27l0.8-5.11h1.94
	l-0.8,5.11h2.28l0.82-5.11h1.35l0.24-1.55h-1.35l0.1-0.62C23.81,12.55,24.07,12.29,24.59,12.29z"/>
</svg>
